<svg width="50" height="45" viewBox="0 0 50 45" fill="none" xmlns="http://www.w3.org/2000/svg">
<path d="M45.8043 36.7454C42.2197 42.0032 35.2105 44.6695 24.9745 44.6695L24.9574 44.6695C14.7367 44.6665 7.74461 41.9993 4.17554 36.7421C1.18784 32.341 0.804685 26.7308 0.804686 22.3348C0.804686 17.939 1.18785 12.329 4.17554 7.92801C7.74461 2.67092 14.7367 0.00362997 24.9577 0.00012419L24.9777 0.000124192C35.2134 -5.02467e-05 42.2197 2.66573 45.8041 7.92364C48.811 12.3342 49.1965 17.942 49.1965 22.3348C49.1965 26.7274 48.811 32.335 45.8043 36.7454Z" fill="url(#paint0_linear_2860_11469)"/>
<path d="M12.8323 21.5407C12.7621 9.92901 28.3753 4.80175 35.1084 15.5911L29.9419 18.5691C26.823 13.4306 19.0791 15.268 18.8012 21.5407C18.8846 27.3218 26.4959 30.0073 29.9422 24.5119L35.1087 27.4898C29.175 37.7509 13.1315 34.0591 12.8323 21.5407Z" fill="#A075DA"/>
<path d="M32.5267 18.1696H33.5107L32.8384 24.6384H31.8359L32.5267 18.1696Z" fill="#A075DA"/>
<path d="M34.6322 18.1696H35.6162L34.9438 24.6384H33.9414L34.6322 18.1696Z" fill="#A075DA"/>
<path d="M36.3416 19.7054H31.4219V20.652H36.3416V19.7054Z" fill="#A075DA"/>
<path d="M36.0682 22.0107H31.1484V22.9573H36.0682V22.0107Z" fill="#A075DA"/>
<defs>
<linearGradient id="paint0_linear_2860_11469" x1="0.8158" y1="0.121386" x2="45.2993" y2="48.328" gradientUnits="userSpaceOnUse">
<stop stop-color="#73549D"/>
<stop offset="1" stop-color="#131214"/>
</linearGradient>
</defs>
</svg>
