<svg width="68" height="62" viewBox="0 0 68 62" fill="none" xmlns="http://www.w3.org/2000/svg">
<path d="M62.6088 50.5247C57.68 57.7542 48.0423 61.4204 33.9679 61.4204L33.9443 61.4204C19.8909 61.4163 10.2768 57.7489 5.3693 50.5203C1.26122 44.4687 0.734372 36.7546 0.734372 30.7102C0.734373 24.6659 1.26122 16.9522 5.3693 10.9009C10.2768 3.67235 19.8909 0.00482337 33.9447 2.91523e-06L33.9722 2.91764e-06C48.0463 -0.000236936 57.68 3.6652 62.6085 10.8948C66.743 16.9594 67.2731 24.6701 67.2731 30.7102C67.2731 36.75 66.743 44.4605 62.6088 50.5247Z" fill="url(#paint0_linear_3065_12981)"/>
<path d="M48.8187 29.6321C48.8187 27.2938 47.8899 25.0514 46.2365 23.398C44.5831 21.7446 42.3406 20.8157 40.0024 20.8157C36.182 20.8157 33.0228 23.828 31.2595 29.1913C29.9371 33.2321 27.733 35.5096 25.3085 35.5096C23.7497 35.5096 22.2547 34.8904 21.1525 33.7881C20.0502 32.6859 19.431 31.1909 19.431 29.6321C19.431 28.0733 20.0502 26.5783 21.1525 25.476C22.2547 24.3738 23.7497 23.7545 25.3085 23.7545H26.1901L25.0146 24.93C24.8549 25.0714 24.7297 25.2475 24.6487 25.4448C24.5676 25.6421 24.5328 25.8553 24.547 26.0681C24.5612 26.281 24.624 26.4877 24.7305 26.6725C24.837 26.8573 24.9845 27.0152 25.1616 27.1341C25.4564 27.3476 25.8172 27.4499 26.1803 27.423C26.5433 27.3961 26.8851 27.2417 27.1452 26.9872L30.7452 23.3137C30.8878 23.1829 31.0016 23.024 31.0794 22.8469C31.1572 22.6699 31.1974 22.4786 31.1974 22.2851C31.1974 22.0917 31.1572 21.9004 31.0794 21.7233C31.0016 21.5463 30.8878 21.3873 30.7452 21.2566L27.1452 17.5831C26.8851 17.3285 26.5433 17.1742 26.1803 17.1473C25.8172 17.1204 25.4564 17.2227 25.1616 17.4362C24.9845 17.5551 24.837 17.713 24.7305 17.8978C24.624 18.0826 24.5612 18.2893 24.547 18.5021C24.5328 18.7149 24.5676 18.9282 24.6487 19.1255C24.7297 19.3228 24.8549 19.4989 25.0146 19.6402L26.1901 20.8157H25.3085C22.9703 20.8157 20.7278 21.7446 19.0744 23.398C17.421 25.0514 16.4922 27.2938 16.4922 29.6321C16.4922 31.9703 17.421 34.2128 19.0744 35.8662C20.7278 37.5195 22.9703 38.4484 25.3085 38.4484C29.1289 38.4484 32.2881 35.4362 34.0514 30.0729C35.3738 26.0321 37.5779 23.7545 40.0024 23.7545C41.5612 23.7545 43.0562 24.3738 44.1584 25.476C45.2607 26.5783 45.8799 28.0733 45.8799 29.6321C45.8799 31.1909 45.2607 32.6859 44.1584 33.7881C43.0562 34.8904 41.5612 35.5096 40.0024 35.5096H39.1208L40.2963 34.3341C40.456 34.1927 40.5812 34.0166 40.6622 33.8194C40.7433 33.6221 40.7781 33.4088 40.7639 33.196C40.7497 32.9832 40.6869 32.7764 40.5804 32.5917C40.4739 32.4069 40.3264 32.249 40.1493 32.13C39.8545 31.9166 39.4937 31.8143 39.1307 31.8412C38.7676 31.868 38.4258 32.0224 38.1657 32.277L34.5657 35.9504C34.4231 36.0812 34.3093 36.2402 34.2315 36.4172C34.1537 36.5943 34.1135 36.7856 34.1135 36.979C34.1135 37.1724 34.1537 37.3637 34.2315 37.5408C34.3093 37.7179 34.4231 37.8768 34.5657 38.0076L38.1657 41.6811C38.4258 41.9356 38.7676 42.09 39.1307 42.1169C39.4937 42.1438 39.8545 42.0414 40.1493 41.828C40.3264 41.7091 40.4739 41.5512 40.5804 41.3664C40.6869 41.1816 40.7497 40.9748 40.7639 40.762C40.7781 40.5492 40.7433 40.336 40.6622 40.1387C40.5812 39.9414 40.456 39.7653 40.2963 39.6239L39.1208 38.4484H40.0024C42.3406 38.4484 44.5831 37.5195 46.2365 35.8662C47.8899 34.2128 48.8187 31.9703 48.8187 29.6321Z" fill="#8CC84B"/>
<defs>
<linearGradient id="paint0_linear_3065_12981" x1="0.746691" y1="0.169334" x2="62.0535" y2="66.6074" gradientUnits="userSpaceOnUse">
<stop stop-color="#3B6630"/>
<stop offset="1" stop-color="#121214"/>
</linearGradient>
</defs>
</svg>
