<svg width="68" height="62" viewBox="0 0 68 62" fill="none" xmlns="http://www.w3.org/2000/svg">
<path d="M62.6049 50.5247C57.6761 57.7542 48.0384 61.4204 33.964 61.4204L33.9404 61.4204C19.887 61.4163 10.2729 57.7489 5.36539 50.5203C1.25731 44.4687 0.730466 36.7546 0.730466 30.7102C0.730467 24.6659 1.25731 16.9522 5.3654 10.9009C10.2729 3.67235 19.887 0.00482337 33.9408 2.91523e-06L33.9683 2.91764e-06C48.0424 -0.000236936 57.6761 3.6652 62.6046 10.8948C66.7391 16.9594 67.2692 24.6701 67.2692 30.7102C67.2692 36.75 66.7391 44.4605 62.6049 50.5247Z" fill="url(#paint0_linear_2614_19256)"/>
<path d="M30.5394 14.1861C27.9856 14.1861 25.9176 16.2094 25.9176 18.708V21.3643H32.8503C33.4807 21.3643 33.9995 22.2672 33.9995 22.884H22.4577C19.9039 22.884 17.8359 24.9073 17.8359 27.4059V33.3856C17.8359 35.8842 19.9039 37.9075 22.4577 37.9075H24.3646V33.6697C24.3646 31.1711 26.4199 29.1478 28.9738 29.1478H37.4596C40.0135 29.1478 42.0814 27.1369 42.0814 24.6383V18.7079C42.0814 16.2093 40.0135 14.186 37.4596 14.186L30.5394 14.1861ZM29.3777 16.7313C30.0242 16.7313 30.5394 16.9225 30.5394 17.8556C30.5394 18.7886 30.0242 19.264 29.3777 19.264C28.7473 19.264 28.2286 18.7886 28.2286 17.8556C28.2286 16.9225 28.7473 16.7313 29.3777 16.7313Z" fill="#E6C430"/>
<path d="M43.6316 22.0922V26.3299C43.6316 28.8285 41.5795 30.8518 39.0256 30.8518H30.5398C27.9859 30.8518 25.918 32.8596 25.918 35.3582V41.2885C25.9177 41.8826 26.037 42.4708 26.2692 43.0198C26.5013 43.5687 26.8417 44.0675 27.2709 44.4877C27.7001 44.9078 28.2096 45.2412 28.7705 45.4687C29.3314 45.6962 29.9326 45.8133 30.5398 45.8134H37.4597C38.0669 45.8133 38.6681 45.6962 39.229 45.4687C39.7898 45.2412 40.2994 44.9078 40.7286 44.4877C41.1578 44.0675 41.4982 43.5687 41.7303 43.0198C41.9625 42.4708 42.0818 41.8826 42.0815 41.2885V38.6322H35.1457C34.5154 38.6322 33.9998 37.7324 33.9998 37.1157H45.5415C46.1487 37.1155 46.7499 36.9984 47.3108 36.7709C47.8716 36.5434 48.3812 36.2101 48.8104 35.7899C49.2396 35.3697 49.58 34.8709 49.8121 34.322C50.0443 33.7731 50.1636 33.1848 50.1633 32.5908V26.6141C50.1631 25.4149 49.676 24.2649 48.8093 23.4169C47.9426 22.5689 46.7672 22.0924 45.5415 22.0922L43.6316 22.0922ZM28.052 29.2302L28.0457 29.2364C28.0651 29.2326 28.0863 29.2338 28.1057 29.2302H28.052ZM38.6215 40.7357C39.2519 40.7357 39.7707 41.2111 39.7707 42.1441C39.7702 42.4419 39.6489 42.7273 39.4334 42.9375C39.2179 43.1478 38.9259 43.2657 38.6215 43.2653C37.975 43.2653 37.4598 43.0771 37.4598 42.1441C37.4598 41.2111 37.975 40.7357 38.6215 40.7357Z" fill="#E6C430"/>
<defs>
<linearGradient id="paint0_linear_2614_19256" x1="0.745749" y1="0.166738" x2="61.9105" y2="66.4509" gradientUnits="userSpaceOnUse">
<stop stop-color="#947E1E"/>
<stop offset="1" stop-color="#141412"/>
</linearGradient>
</defs>
</svg>
